<?xml version="1.0" encoding="UTF-8"?>
<svg id="Layer_2" data-name="Layer 2" xmlns="http://www.w3.org/2000/svg" viewBox="0 0 185.19 326.48">
  <defs>
    <style>
      .cls-1, .cls-2, .cls-3, .cls-4, .cls-5 {
        fill: none;
        stroke: #042b19;
      }

      .cls-1, .cls-3, .cls-4, .cls-5 {
        stroke-linecap: round;
        stroke-linejoin: round;
      }

      .cls-2 {
        stroke-miterlimit: 10;
      }

      .cls-2, .cls-5 {
        stroke-width: 1.5px;
      }

      .cls-3 {
        stroke-dasharray: 0 0 .98 2.95;
      }

      .cls-4 {
        stroke-width: 1.75px;
      }
    </style>
  </defs>
  <g id="Layer_1-2" data-name="Layer 1">
    <g>
      <g>
        <g>
          <path class="cls-4" d="m86.15,302.1c-16.57,0-30.01-13.44-30.01-30.01,0-7.44,3.17-13.88,7.18-19.48,4.96-6.92,7.42-11.2,8.98-19.17.87-4.44.73-10.23,2.03-14.84.86-3.05,5.29-4.74,11.81-4.74,6.52,0,10.95,1.69,11.81,4.74,1.3,4.6,1.17,10.4,2.03,14.84,1.56,7.97,4.02,12.24,8.98,19.17,4.02,5.6,7.18,12.05,7.18,19.48,0,16.57-13.44,30.01-30.01,30.01Z"/>
          <path class="cls-1" d="m82.32,219.1c0,13.93,2.47,17.2,8.11,24.49,5.63,7.29,2.65,14.25,4.64,19.22,1.99,4.97,6.63,1.33,3.98-2.65s-9.69-3.75-14.04.61c-4.36,4.36-2.01,8.71,1.03,8.71,3.05,0,5.39-4.36,1.03-8.71-4.36-4.36-11.39-4.58-14.04-.61-2.65,3.98,1.99,7.62,3.98,2.65,1.99-4.97-.99-11.93,4.64-19.22s8.13-10.56,8.13-24.49"/>
          <line class="cls-3" x1="86.15" y1="325.98" x2="86.15" y2="310.39"/>
          <line class="cls-3" x1="48.32" y1="310.31" x2="59.35" y2="299.28"/>
          <line class="cls-3" x1="32.65" y1="272.48" x2="48.24" y2="272.48"/>
          <line class="cls-3" x1="139.64" y1="272.48" x2="124.05" y2="272.48"/>
          <line class="cls-3" x1="123.98" y1="310.31" x2="112.95" y2="299.28"/>
          <g>
            <line class="cls-3" x1="71.86" y1="307.59" x2="68.86" y2="314.99"/>
            <line class="cls-3" x1="51.22" y1="287.21" x2="43.86" y2="290.31"/>
            <line class="cls-3" x1="51.04" y1="258.2" x2="43.64" y2="255.19"/>
            <line class="cls-3" x1="121.08" y1="257.75" x2="128.44" y2="254.65"/>
            <line class="cls-3" x1="128.65" y1="289.77" x2="121.26" y2="286.77"/>
            <line class="cls-3" x1="103.98" y1="314.77" x2="100.88" y2="307.41"/>
          </g>
        </g>
        <line class="cls-2" x1="87.69" y1=".09" x2="87.69" y2="191.88"/>
        <line class="cls-2" x1="84.69" y1="191.88" x2="84.69" y2=".09"/>
        <path class="cls-5" d="m99.46,217.37v-17.61c0-3.57-5.96-6.25-13.31-6.25s-13.31,2.68-13.31,6.25v17.61"/>
        <path class="cls-5" d="m98.32,216.34c0-3.27-5.45-4.8-12.17-4.8s-12.17,1.53-12.17,4.8"/>
      </g>
      <g>
        <g>
          <path class="cls-4" d="m140.07,227.98c-13.82,0-25.03-11.21-25.03-25.03,0-6.2,2.64-11.58,5.99-16.25,4.14-5.77,6.19-9.34,7.49-15.99.72-3.7.61-8.54,1.7-12.38.72-2.54,4.41-3.95,9.85-3.95,5.44,0,9.13,1.41,9.85,3.95,1.09,3.84.97,8.68,1.7,12.38,1.3,6.65,3.35,10.21,7.49,15.99,3.35,4.67,5.99,10.05,5.99,16.25,0,13.82-11.21,25.03-25.03,25.03Z"/>
          <path class="cls-1" d="m136.88,158.76c0,11.62,2.06,14.35,6.76,20.43s2.21,11.89,3.87,16.03c1.66,4.15,5.53,1.11,3.32-2.21s-8.08-3.13-11.71.5-1.68,7.27.86,7.27c2.54,0,4.5-3.63.86-7.27s-9.5-3.82-11.71-.5c-2.21,3.32,1.66,6.36,3.32,2.21,1.66-4.15-.83-9.95,3.87-16.03,4.7-6.08,6.78-8.81,6.78-20.43"/>
          <line class="cls-3" x1="140.07" y1="247.9" x2="140.07" y2="234.89"/>
          <line class="cls-3" x1="108.52" y1="234.83" x2="117.71" y2="225.63"/>
          <line class="cls-3" x1="184.69" y1="203.28" x2="171.68" y2="203.28"/>
          <line class="cls-3" x1="171.62" y1="234.83" x2="162.42" y2="225.63"/>
          <g>
            <line class="cls-3" x1="128.15" y1="232.56" x2="125.64" y2="238.73"/>
            <line class="cls-3" x1="110.94" y1="215.56" x2="104.79" y2="218.15"/>
            <line class="cls-3" x1="169.2" y1="190.99" x2="175.34" y2="188.4"/>
            <line class="cls-3" x1="175.52" y1="217.7" x2="169.35" y2="215.19"/>
            <line class="cls-3" x1="154.94" y1="238.55" x2="152.35" y2="232.41"/>
          </g>
        </g>
        <line class="cls-2" x1="141.35" x2="141.35" y2="136.05"/>
        <line class="cls-2" x1="138.85" y1="136.05" x2="138.85"/>
        <path class="cls-5" d="m151.17,157.31v-14.69c0-2.98-4.97-5.22-11.1-5.22s-11.1,2.23-11.1,5.22v14.69"/>
        <path class="cls-5" d="m150.22,156.45c0-2.73-4.54-4.01-10.15-4.01s-10.15,1.28-10.15,4.01"/>
      </g>
      <g>
        <g>
          <path class="cls-4" d="m40.53,183.9c-12.4,0-22.45-10.05-22.45-22.45,0-5.56,2.37-10.39,5.38-14.58,3.71-5.18,5.56-8.38,6.72-14.34.65-3.32.55-7.66,1.52-11.1.65-2.28,3.96-3.55,8.84-3.55,4.88,0,8.19,1.26,8.84,3.55.97,3.44.87,7.78,1.52,11.1,1.17,5.96,3.01,9.16,6.72,14.34,3.01,4.19,5.38,9.01,5.38,14.58,0,12.4-10.05,22.45-22.45,22.45Z"/>
          <path class="cls-1" d="m37.66,121.8c0,10.42,1.85,12.87,6.07,18.32s1.98,10.66,3.47,14.38,4.96.99,2.98-1.98c-1.98-2.98-7.25-2.81-10.51.45-3.26,3.26-1.51,6.52.77,6.52,2.28,0,4.03-3.26.77-6.52-3.26-3.26-8.52-3.43-10.51-.45-1.98,2.98,1.49,5.7,2.98,1.98,1.49-3.72-.74-8.93,3.47-14.38,4.22-5.46,6.08-7.9,6.08-18.32"/>
          <line class="cls-3" x1="40.53" y1="201.77" x2="40.53" y2="190.1"/>
          <line class="cls-3" x1="12.22" y1="190.04" x2="20.47" y2="181.8"/>
          <line class="cls-3" x1=".5" y1="161.74" x2="12.16" y2="161.74"/>
          <line class="cls-3" x1="78.05" y1="161.74" x2="68.89" y2="161.74"/>
          <line class="cls-3" x1="68.83" y1="190.04" x2="60.58" y2="181.8"/>
          <g>
            <line class="cls-3" x1="29.84" y1="188.01" x2="27.59" y2="193.54"/>
            <line class="cls-3" x1="14.39" y1="172.76" x2="8.88" y2="175.08"/>
            <line class="cls-3" x1="14.26" y1="151.05" x2="8.72" y2="148.8"/>
            <line class="cls-3" x1="66.66" y1="150.72" x2="72.17" y2="148.4"/>
            <line class="cls-3" x1="72.33" y1="174.68" x2="66.8" y2="172.43"/>
            <line class="cls-3" x1="53.87" y1="193.39" x2="51.55" y2="187.88"/>
          </g>
        </g>
        <line class="cls-2" x1="41.68" x2="41.68" y2="101.43"/>
        <line class="cls-2" x1="39.43" y1="101.43" x2="39.43"/>
        <path class="cls-5" d="m50.49,120.51v-13.18c0-2.67-4.46-4.68-9.96-4.68s-9.96,2-9.96,4.68v13.18"/>
        <path class="cls-5" d="m49.63,119.73c0-2.44-4.08-3.59-9.11-3.59s-9.11,1.15-9.11,3.59"/>
      </g>
    </g>
  </g>
</svg>